#!OML:ASF I:\Actors\actors\Patient Classification 2\Patient 1\Session 1\actor1.ASF
:FULLY-SPECIFIED
:DEGREES
575
root -1.04295 18.9382 4.88845 21.4306 -6.09489 3.58509
lowerback 21.0856 -4.21152 14.0005
upperback 1.36866 -1.52115 6.16564
thorax -10.5735 -1.19611 -0.540836
lowerneck -13.7726 0.89536 2.76589
upperneck 0.628813 1.27113 -11.7793
head 2.53784 0.166528 -3.97222
rclavicle -4.77083e-015 -4.77083e-015
rhumerus 52.3922 49.3922 -65.0448
rradius 143.194
rwrist -8.58083
rhand -27.8255 -35.1098
rfingers 7.12502
rthumb -1.21742 -65.0861
lclavicle -4.77083e-015 -4.77083e-015
lhumerus 50.1613 -56.4486 62.9628
lradius 142.517
lwrist 9.28514
lhand -27.154 -65.0377
lfingers 7.12502
lthumb -0.568844 -35.0587
rfemur -24.4166 6.3152 7.93765
rtibia 9.77534
rfoot -19.5337 -16.0886
rtoes -4.16409
lfemur -29.5806 1.1839 -16.2386
ltibia 20.0075
lfoot -13.251 9.68776
ltoes -55.4474
576
root -1.04137 18.9369 4.88184 21.4665 -6.1353 3.59394
lowerback 21.1628 -4.30034 14.1669
upperback 1.41363 -1.58193 6.21083
thorax -10.5754 -1.22883 -0.55861
lowerneck -13.6513 0.975987 2.94266
upperneck 0.344596 1.32714 -11.863
head 2.44036 0.204782 -4.0221
rclavicle 4.77083e-015 -6.52014e-014
rhumerus 52.0926 49.137 -65.5954
rradius 142.981
rwrist -9.90243
rhand -27.78 -33.5386
rfingers 7.12502
rthumb -1.17343 -63.5151
lclavicle 4.77083e-015 -6.52014e-014
lhumerus 50.3172 -56.4404 62.7622
lradius 142.544
lwrist 9.75517
lhand -26.9629 -65.2671
lfingers 7.12502
lthumb -0.384301 -35.2877
rfemur -24.5482 6.36303 7.88222
rtibia 9.87724
rfoot -19.5589 -16.1057
rtoes -4.17149
lfemur -29.661 1.26758 -16.2755
ltibia 20.0451
lfoot -13.2704 9.60463
ltoes -55.3769
577
root -1.04136 18.936 4.87444 21.5062 -6.21925 3.60277
lowerback 21.2813 -4.38693 14.2833
upperback 1.44655 -1.64386 6.2342
thorax -10.6132 -1.2622 -0.570322
lowerneck -13.5796 1.07605 3.15647
upperneck 0.107155 1.40678 -11.906
head 2.36634 0.253374 -4.06475
rclavicle -1.43125e-014 1.90833e-014
rhumerus 52.4638 49.5552 -65.0921
rradius 143.282
rwrist -9.13642
rhand -27.3155 -35.3294
rfingers 7.12502
rthumb -0.724772 -65.3079
lclavicle -1.43125e-014 1.90833e-014
lhumerus 50.3843 -56.4103 62.605
lradius 142.572
lwrist 10.2062
lhand -26.8691 -65.4946
lfingers 7.12502
lthumb -0.293628 -35.5151
rfemur -24.5847 6.45345 7.81434
rtibia 9.7503
rfoot -19.4789 -16.2079
rtoes -4.1756
lfemur -29.7898 1.3408 -16.3083
ltibia 20.1885
lfoot -13.3503 9.54945
ltoes -55.3091
578
root -1.04157 18.9358 4.86532 21.4685 -6.17924 3.26522
lowerback 21.5011 -4.51583 14.7414
upperback 1.50797 -1.6498 6.35858
thorax -10.6755 -1.28246 -0.664616
lowerneck -13.4982 1.13898 3.31029
upperneck -0.0898334 1.45025 -11.9544
head 2.29998 0.282315 -4.10158
rclavicle 5.725e-014 -9.54166e-015
rhumerus 52.388 49.6658 -65.235
rradius 143.364
rwrist -9.73418
rhand -27.0413 -35.3185
rfingers 7.12502
rthumb -0.460004 -65.2977
lclavicle 5.725e-014 -9.54166e-015
lhumerus 50.3676 -56.4101 62.5669
lradius 142.672
lwrist 10.7475
lhand -26.9596 -65.7789
lfingers 7.12502
lthumb -0.381024 -35.7995
rfemur -24.572 6.59892 8.17067
rtibia 9.78133
rfoot -19.4946 -16.239
rtoes -3.97628
lfemur -29.7653 1.33775 -15.8972
ltibia 20.2716
lfoot -13.4069 9.59839
ltoes -55.2489
579
root -1.04093 18.9345 4.85681 21.4447 -6.15881 2.95679
lowerback 21.6919 -4.61235 15.1877
upperback 1.57025 -1.62014 6.49058
thorax -10.715 -1.28478 -0.756274
lowerneck -13.4161 1.16935 3.35699
upperneck -0.283722 1.46586 -11.9731
head 2.23106 0.297917 -4.11326
rclavicle 2.06736e-014 1.74931e-014
rhumerus 52.2959 49.6639 -65.345
rradius 143.517
rwrist -10.5515
rhand -26.6827 -35.5559
rfingers 7.12502
rthumb -0.113654 -65.5356
lclavicle 2.06736e-014 1.74931e-014
lhumerus 50.2704 -56.3957 62.7422
lradius 142.796
lwrist 11.5747
lhand -27.065 -66.0214
lfingers 7.12502
lthumb -0.482875 -36.0422
rfemur -24.6465 6.74518 8.48723
rtibia 9.93782
rfoot -19.5715 -16.2383
rtoes -3.8838
lfemur -29.7317 1.53148 -15.5905
ltibia 20.2808
lfoot -13.3368 9.5068
ltoes -55.2166
580
root -1.03849 18.9337 4.85212 21.5695 -6.48654 3.40893
lowerback 21.6682 -4.52689 14.8526
upperback 1.61274 -1.6084 6.44137
thorax -10.6415 -1.26133 -0.641103
lowerneck -13.4552 1.1902 3.28789
upperneck -0.516443 1.47969 -11.9267
head 2.16761 0.311813 -4.0862
rclavicle -7.79236e-014 7.79236e-014
rhumerus 51.7878 49.1594 -66.1061
rradius 143.383
rwrist -13.3363
rhand -26.7947 -33.5208
rfingers 7.12502
rthumb -0.221767 -63.5005
lclavicle -7.79236e-014 7.79236e-014
lhumerus 50.3671 -56.3388 62.8678
lradius 142.934
lwrist 12.6926
lhand -27.0215 -66.0887
lfingers 7.12502
lthumb -0.440829 -36.1094
rfemur -24.9959 6.83882 7.83611
rtibia 10.0845
rfoot -19.5963 -16.2738
rtoes -4.20624
lfemur -29.9028 1.73457 -16.2145
ltibia 20.2638
lfoot -13.2849 9.44028
ltoes -55.1967
581
root -1.03421 18.9337 4.8478 21.6639 -6.75822 3.84721
lowerback 21.7011 -4.49358 14.5949
upperback 1.65118 -1.63518 6.36133
thorax -10.612 -1.26172 -0.58577
lowerneck -13.5491 1.23469 3.30384
upperneck -0.722431 1.51488 -11.8857
head 2.12316 0.333764 -4.07402
rclavicle 6.04305e-014 6.36111e-015
rhumerus 51.2223 49.8063 -66.0895
rradius 143.912
rwrist -14.3604
rhand -26.7706 -32.87
rfingers 7.12502
rthumb -0.198557 -62.8497
lclavicle 6.04305e-014 6.36111e-015
lhumerus 50.5051 -56.3197 62.8568
lradius 143.078
lwrist 13.7406
lhand -26.9497 -66.1536
lfingers 7.12502
lthumb -0.371465 -36.1742
rfemur -25.3488 6.83307 7.24988
rtibia 10.3595
rfoot -19.6312 -16.2033
rtoes -4.4373
lfemur -30.0132 1.75419 -16.7627
ltibia 20.1898
lfoot -13.2719 9.47002
ltoes -55.1208
582
root -1.03139 18.9337 4.84159 21.7282 -6.82876 3.88098
lowerback 21.7879 -4.58055 14.7245
upperback 1.68318 -1.70293 6.35247
thorax -10.6352 -1.2985 -0.640283
lowerneck -13.4734 1.31779 3.52978
upperneck -0.998763 1.56611 -11.902
head 2.03496 0.369426 -4.11273
rclavicle 6.36111e-015 2.22639e-014
rhumerus 51.3609 48.9798 -66.7937
rradius 143.531
rwrist -16.5718
rhand -26.2716 -32.9477
rfingers 7.12502
rthumb 0.283403 -62.9272
lclavicle 6.36111e-015 2.22639e-014
lhumerus 50.2915 -56.2378 63.0133
lradius 143.212
lwrist 14.5331
lhand -26.9657 -66.3459
lfingers 7.12502
lthumb -0.386959 -36.3665
rfemur -25.6572 6.88412 7.15972
rtibia 10.7475
rfoot -19.7955 -16.1131
rtoes -4.29439
lfemur -30.0335 1.6792 -16.7809
ltibia 20.0633
lfoot -13.254 9.56847
ltoes -55.0489
583
root -1.03053 18.9328 4.83427 21.8284 -6.93769 3.89626
lowerback 21.864 -4.64299 14.8277
upperback 1.69729 -1.74232 6.37163
thorax -10.6683 -1.3215 -0.657188
lowerneck -13.4057 1.40043 3.64912
upperneck -1.24361 1.63649 -11.9113
head 1.95815 0.41339 -4.13077
rclavicle -3.18055e-015 -1.27222e-014
rhumerus 51.3376 49.2875 -67.0547
rradius 143.539
rwrist -17.5188
rhand -25.586 -32.8237
rfingers 7.12502
rthumb 0.945576 -62.8013
lclavicle -3.18055e-015 -1.27222e-014
lhumerus 49.912 -56.1267 63.3586
lradius 143.355
lwrist 15.4422
lhand -26.9685 -66.6322
lfingers 7.12502
lthumb -0.389668 -36.6529
rfemur -25.9584 6.9053 7.09729
rtibia 11.0024
rfoot -19.8518 -16.0332
rtoes -4.24535
lfemur -30.1175 1.63862 -16.7836
ltibia 19.9942
lfoot -13.2867 9.69176
ltoes -55.1038
584
root -1.0301 18.9316 4.82643 21.8815 -7.08431 3.95961
lowerback 22.0371 -4.64417 14.8092
upperback 1.70602 -1.70327 6.46418
thorax -10.7454 -1.30311 -0.544825
lowerneck -13.4474 1.4754 3.60838
upperneck -1.39954 1.73059 -11.9911
head 1.9272 0.460831 -4.14319
rclavicle -3.97569e-014 5.88403e-014
rhumerus 50.593 50.2035 -66.8099
rradius 144.508
rwrist -17.8042
rhand -25.1478 -32.8025
rfingers 7.12502
rthumb 1.36881 -62.7778
lclavicle -3.97569e-014 5.88403e-014
lhumerus 49.6784 -56.0967 63.7414
lradius 143.492
lwrist 16.4511
lhand -27.2427 -66.7344
lfingers 7.12502
lthumb -0.654499 -36.7557
rfemur -26.1748 6.92068 6.98882
rtibia 11.1602
rfoot -19.8329 -15.9826
rtoes -4.38509
lfemur -30.1919 1.75478 -16.8982
ltibia 19.9837
lfoot -13.2779 9.67676
ltoes -55.1505
585
root -1.02857 18.9307 4.81908 21.9224 -7.23994 4.04012
lowerback 22.0742 -4.6474 14.8018
upperback 1.79858 -1.7115 6.49563
thorax -10.6575 -1.29913 -0.506752
lowerneck -13.4136 1.57422 3.76829
upperneck -1.73414 1.81161 -12.1522
head 1.83389 0.506621 -4.21465
rclavicle 5.40694e-014 -6.99722e-014
rhumerus 50.353 50.4447 -66.7978
rradius 144.865
rwrist -18.7234
rhand -24.7937 -32.7373
rfingers 7.12502
rthumb 1.71077 -62.7102
lclavicle 5.40694e-014 -6.99722e-014
lhumerus 49.3193 -55.7469 64.3372
lradius 143.346
lwrist 18.6524
lhand -26.0262 -67.9033
lfingers 7.12502
lthumb 0.520401 -37.9241
rfemur -26.3964 6.90356 6.86945
rtibia 11.356
rfoot -19.7991 -15.8905
rtoes -4.52894
lfemur -30.2567 1.94217 -17.068
ltibia 19.9685
lfoot -13.1966 9.59137
ltoes -55.1749
586
root -1.02831 18.9297 4.81007 22.0068 -7.32196 4.1011
lowerback 22.1778 -4.71088 14.8999
upperback 1.80286 -1.74876 6.48449
thorax -10.7173 -1.32294 -0.553497
lowerneck -13.333 1.66509 3.96767
upperneck -2.02169 1.87982 -12.2692
head 1.74595 0.547454 -4.27997
rclavicle 4.77083e-015 -3.81667e-014
rhumerus 50.0678 50.3902 -67.2234
rradius 144.921
rwrist -19.9635
rhand -24.2275 -32.6054
rfingers 7.12502
rthumb 2.25768 -62.5732
lclavicle 4.77083e-015 -3.81667e-014
lhumerus 49.1853 -55.6626 64.4736
lradius 143.506
lwrist 19.8742
lhand -26.2701 -68.0382
lfingers 7.12502
lthumb 0.284902 -38.0587
rfemur -26.6419 6.89127 6.77483
rtibia 11.5456
rfoot -19.8139 -15.8232
rtoes -4.48577
lfemur -30.3857 2.1676 -17.2208
ltibia 19.9561
lfoot -13.0592 9.42121
ltoes -55.2692
